<?xml version="1.0" encoding="utf-8"?>
<!-- Svg Vector Icons : http://www.onlinewebfonts.com/icon -->
<!DOCTYPE svg PUBLIC "-//W3C//DTD SVG 1.1//EN" "http://www.w3.org/Graphics/SVG/1.1/DTD/svg11.dtd">
<svg version="1.1" xmlns="http://www.w3.org/2000/svg" xmlns:xlink="http://www.w3.org/1999/xlink" x="0px" y="0px" viewBox="0 0 256 256" enable-background="new 0 0 256 256" xml:space="preserve">
<metadata> Svg Vector Icons : http://www.onlinewebfonts.com/icon </metadata>
<g><g><path fill="#000000" d="M128,10C62.8,10,10,62.8,10,128c0,65.2,52.8,118,118,118c65.2,0,118-52.8,118-118C246,62.8,193.2,10,128,10z M170.3,177.4L170.3,177.4H49.2c-2.4,0-4.4-2-4.3-4.3c0.6-26.6,19.6-49.1,45.2-56.9c-10.3-6.2-17.2-17-17.2-29.5c0-19.3,16.5-34.9,36.8-34.9c20.3,0,36.8,15.6,36.8,34.9c0,12.4-6.9,23.3-17.2,29.5c25.6,7.8,44.6,30.4,45.2,56.9C174.7,175.4,172.7,177.4,170.3,177.4z M208,176.9h-25.1c0.4-1.3,0.7-2.6,0.7-4c-0.6-24.9-15.4-47.3-38-59.2c6.4-7.5,10-17,10-27c0-4.2-0.7-8.3-1.9-12.2c1.6-0.2,3.2-0.4,4.8-0.4c16.7,0,30.2,12.8,30.2,28.5c0,10.2-5.6,19-14.1,24.1c20.9,6.4,36.5,24.9,37,46.6C211.5,175.2,209.9,176.9,208,176.9z"/></g></g>
</svg>