<svg width="256" height="256" xmlns="http://www.w3.org/2000/svg" xml:space="preserve" enable-background="new 0 0 256 256" version="1.1">
 <metadata>Svg Vector Icons : http://www.onlinewebfonts.com/icon</metadata>

 <g>
  <title>Layer 1</title>
  <rect stroke="#000" id="svg_4" height="143.99999" width="174" y="50.50001" x="41" fill="#fff"/>
  <g id="svg_1">
   <g id="svg_2">
    <path id="svg_3" d="m128,10c-65.2,0 -118,52.8 -118,118c0,65.2 52.8,118 118,118c65.2,0 118,-52.8 118,-118c0,-65.2 -52.8,-118 -118,-118zm42.3,167.4l0,0l-121.1,0c-2.4,0 -4.4,-2 -4.3,-4.3c0.6,-26.6 19.6,-49.1 45.2,-56.9c-10.3,-6.2 -17.2,-17 -17.2,-29.5c0,-19.3 16.5,-34.9 36.8,-34.9c20.3,0 36.8,15.6 36.8,34.9c0,12.4 -6.9,23.3 -17.2,29.5c25.6,7.8 44.6,30.4 45.2,56.9c0.2,2.3 -1.8,4.3 -4.2,4.3zm37.7,-0.5l-25.1,0c0.4,-1.3 0.7,-2.6 0.7,-4c-0.6,-24.9 -15.4,-47.3 -38,-59.2c6.4,-7.5 10,-17 10,-27c0,-4.2 -0.7,-8.3 -1.9,-12.2c1.6,-0.2 3.2,-0.4 4.8,-0.4c16.7,0 30.2,12.8 30.2,28.5c0,10.2 -5.6,19 -14.1,24.1c20.9,6.4 36.5,24.9 37,46.6c-0.1,1.9 -1.7,3.6 -3.6,3.6z" fill="#000000"/>
   </g>
  </g>
 </g>
</svg>