<?xml version="1.0" encoding="iso-8859-1"?>
<!-- Generator: Adobe Illustrator 19.0.0, SVG Export Plug-In . SVG Version: 6.00 Build 0)  -->
<svg version="1.1" id="Layer_1" xmlns="http://www.w3.org/2000/svg" xmlns:xlink="http://www.w3.org/1999/xlink" x="0px" y="0px"
	 viewBox="0 0 128 128" style="enable-background:new 0 0 128 128;" xml:space="preserve">
<g>
	<circle style="fill:#FF8E6E;" cx="64" cy="64" r="64"/>
	<g>
		<path style="fill:#E8CF13;" d="M27.612,36.667v26.496c0,13.939,16.214,24.435,36.5,24.435s36.5-10.496,36.5-24.435V36.667H27.612z
			 M95.612,63.102c0,12.197-13.749,21.281-31.5,21.281s-31.5-9.084-31.5-21.281V40.667h63V63.102z"/>
		<rect x="58.612" y="82.667" style="fill:#DDB40A;" width="10" height="19"/>
		<path style="fill:#F3C80A;" d="M36.984,30.667c-0.159,1,0.628,2.243,0.628,3.471v28.137c0,14.874,11.626,26.931,26.5,26.931
			s26.5-12.058,26.5-26.931V34.137c0-1.228-0.104-2.471-0.263-3.471L36.984,30.667L36.984,30.667z"/>
		<path style="fill:#DDB40A;" d="M96.612,30.167c0,1.933-1.567,3.5-3.5,3.5h-56c-1.933,0-3.5-1.567-3.5-3.5l0,0
			c0-1.933,1.567-3.5,3.5-3.5h56C95.045,26.667,96.612,28.234,96.612,30.167L96.612,30.167z"/>
		<path style="fill:#F2DB0C;" d="M73.716,97.167c0,0.888-0.54,1.5-1.206,1.5H54.02c-0.666,0-1.206-0.612-1.206-1.5l0,0
			c0-0.888,0.54-1.5,1.206-1.5h18.49C73.176,95.667,73.716,96.279,73.716,97.167L73.716,97.167z"/>
		<rect x="47.612" y="98.667" style="fill:#F3C80A;" width="33" height="11"/>
		<rect x="52.612" y="101.667" style="fill:#F3F4F8;" width="22" height="5"/>
		<circle style="fill:#F3F4F8;" cx="64.069" cy="57.853" r="17.686"/>
		<polygon style="fill:#E8CF13;" points="64.069,47.871 67.238,54.294 74.326,55.324 69.198,60.323 70.408,67.383 64.069,64.05 
			57.729,67.383 58.94,60.323 53.811,55.324 60.899,54.294 		"/>
	</g>
</g>
<g>
</g>
<g>
</g>
<g>
</g>
<g>
</g>
<g>
</g>
<g>
</g>
<g>
</g>
<g>
</g>
<g>
</g>
<g>
</g>
<g>
</g>
<g>
</g>
<g>
</g>
<g>
</g>
<g>
</g>
</svg>
