<?xml version="1.0" encoding="iso-8859-1"?>
<!-- Generator: Adobe Illustrator 19.0.0, SVG Export Plug-In . SVG Version: 6.00 Build 0)  -->
<svg version="1.1" id="Layer_1" xmlns="http://www.w3.org/2000/svg" xmlns:xlink="http://www.w3.org/1999/xlink" x="0px" y="0px"
	 viewBox="0 0 512 512" style="enable-background:new 0 0 512 512;" xml:space="preserve">
<circle style="fill:#F1543F;" cx="256" cy="256" r="256"/>
<path style="fill:#D83E20;" d="M507.089,306.078l-138.5-138.5L215.919,318.204l-72.507,78.533l115.231,115.231
	C381.709,510.721,483.969,422.65,507.089,306.078z"/>
<polygon style="fill:#E9EFF4;" points="316.276,115.264 143.412,115.264 143.412,396.736 368.588,396.736 368.588,167.577 "/>
<polygon style="fill:#CFDBE6;" points="368.588,167.577 316.276,115.264 255.426,115.264 255.426,396.736 368.588,396.736 "/>
<polygon style="fill:#B8C9D9;" points="316.276,167.577 368.588,167.577 316.276,115.264 "/>
<g>
	<polygon style="fill:#386895;" points="179.922,206.798 167.619,194.494 173.715,188.4 179.922,194.61 200.373,174.159 
		206.469,180.255 	"/>
	<polygon style="fill:#386895;" points="179.922,253.793 167.619,241.49 173.715,235.396 179.922,241.604 200.373,221.155 
		206.469,227.249 	"/>
	<polygon style="fill:#386895;" points="179.922,300.787 167.619,288.485 173.715,282.391 179.922,288.599 200.373,268.15 
		206.469,274.244 	"/>
	<polygon style="fill:#386895;" points="179.922,347.782 167.619,335.479 173.715,329.385 179.922,335.594 200.373,315.145 
		206.469,321.239 	"/>
</g>
<g>
	<rect x="227.556" y="199.111" style="fill:#808183;" width="85.333" height="4.198"/>
	<rect x="227.556" y="245.122" style="fill:#808183;" width="85.333" height="4.198"/>
	<rect x="227.556" y="291.133" style="fill:#808183;" width="85.333" height="4.198"/>
	<rect x="227.556" y="337.127" style="fill:#808183;" width="85.333" height="4.198"/>
</g>
<g>
	<rect x="255.431" y="199.111" style="fill:#59595B;" width="57.458" height="4.198"/>
	<rect x="255.431" y="245.122" style="fill:#59595B;" width="57.458" height="4.198"/>
	<rect x="255.431" y="291.133" style="fill:#59595B;" width="57.458" height="4.198"/>
	<rect x="255.431" y="337.127" style="fill:#59595B;" width="57.458" height="4.198"/>
</g>
<g>
</g>
<g>
</g>
<g>
</g>
<g>
</g>
<g>
</g>
<g>
</g>
<g>
</g>
<g>
</g>
<g>
</g>
<g>
</g>
<g>
</g>
<g>
</g>
<g>
</g>
<g>
</g>
<g>
</g>
</svg>
