<?xml version="1.0" encoding="iso-8859-1"?>
<!-- Generator: Adobe Illustrator 19.0.0, SVG Export Plug-In . SVG Version: 6.00 Build 0)  -->
<svg version="1.1" id="Layer_1" xmlns="http://www.w3.org/2000/svg" xmlns:xlink="http://www.w3.org/1999/xlink" x="0px" y="0px"
	 viewBox="0 0 512 512" style="enable-background:new 0 0 512 512;" xml:space="preserve">
<circle style="fill:#25B6D2;" cx="256" cy="256" r="256"/>
<path style="fill:#FFFFFF;" d="M238.464,210.176c0,42.624-26.96,64.896-56.416,64.896c-31.024,0-55.488-23.2-55.488-61.456
	c0-36.352,22.256-63.936,57.04-63.936C218.72,149.664,238.464,175.376,238.464,210.176z M161.984,212.352
	c0,21.312,7.2,36.672,20.992,36.672c13.488,0,20.064-13.776,20.064-36.672c0-20.688-5.648-36.672-20.368-36.672
	C168.56,175.68,161.984,191.984,161.984,212.352z M184.544,360.336L301.488,149.68h25.696L209.936,360.336H184.544z
	 M385.168,294.816c0,42.624-26.96,64.896-56.416,64.896c-30.72,0-55.168-23.2-55.488-61.456c0-36.352,22.256-63.936,57.04-63.936
	C365.424,234.32,385.168,260.016,385.168,294.816z M308.992,296.992c-0.32,21.312,6.896,36.672,20.688,36.672
	c13.488,0,20.064-13.776,20.064-36.672c0-20.688-5.328-36.672-20.064-36.672C315.264,260.336,308.992,276.624,308.992,296.992z"/>
<g>
</g>
<g>
</g>
<g>
</g>
<g>
</g>
<g>
</g>
<g>
</g>
<g>
</g>
<g>
</g>
<g>
</g>
<g>
</g>
<g>
</g>
<g>
</g>
<g>
</g>
<g>
</g>
<g>
</g>
</svg>
