<?xml version="1.0" encoding="utf-8"?>
<!-- Generator: Adobe Illustrator 16.0.4, SVG Export Plug-In . SVG Version: 6.00 Build 0)  -->
<!DOCTYPE svg PUBLIC "-//W3C//DTD SVG 1.1//EN" "http://www.w3.org/Graphics/SVG/1.1/DTD/svg11.dtd">
<svg version="1.1" id="Ebene_1" xmlns="http://www.w3.org/2000/svg" x="0px"
     y="0px"
     width="283.46px" height="283.46px" viewBox="0 0 283.46 283.46" enable-background="new 0 0 283.46 283.46"
     xml:space="preserve">
<rect x="-2.54" y="-3.54" fill="#283488" width="286" height="287"/>
    <g>
	<path fill="#FFFFFF" d="M84.125,101.53c0,7.482-6.07,13.551-13.557,13.551c-7.484,0-13.554-6.068-13.554-13.551
		c0-7.487,6.069-13.558,13.554-13.558C78.055,87.972,84.125,94.042,84.125,101.53z"/>
        <path fill="#FFFFFF" d="M117.781,179.591c0,7.484-6.069,13.553-13.557,13.553c-7.482,0-13.555-6.068-13.555-13.553
		c0-7.488,6.072-13.559,13.555-13.559C111.712,166.032,117.781,172.103,117.781,179.591z"/>
        <path fill="#FFFFFF" d="M154.945,101.532c0,7.479-6.07,13.55-13.555,13.55c-7.486,0-13.555-6.07-13.555-13.55
		c0-7.49,6.068-13.561,13.555-13.561C148.875,87.972,154.945,94.042,154.945,101.532z"/>
        <circle fill="#FFFFFF" cx="178.085" cy="179.591" r="13.555"/>
        <path fill="#EC8700" d="M225.71,101.528c0,7.482-6.069,13.554-13.555,13.554c-7.486,0-13.557-6.071-13.557-13.554
		c0-7.49,6.07-13.557,13.557-13.557C219.641,87.972,225.71,94.038,225.71,101.528z"/>
</g>
    <rect x="154.833" y="96.167" fill="none" width="43.667" height="11.667"/>
</svg>
