<?xml version="1.0" encoding="UTF-8"?>
<svg id="Layer_1" data-name="Layer 1" xmlns="http://www.w3.org/2000/svg" xmlns:xlink="http://www.w3.org/1999/xlink" viewBox="0 0 500 500">
  <defs>
    <style>
      .cls-1 {
        fill: url(#linear-gradient-2);
      }

      .cls-2 {
        fill: url(#linear-gradient);
      }

      .cls-3 {
        fill: #666;
      }
    </style>
    <linearGradient id="linear-gradient" x1="-1297.86" y1="-161.52" x2="-1296.86" y2="-161.52" gradientTransform="translate(157603.41 -19411.79) scale(121.35 -121.35)" gradientUnits="userSpaceOnUse">
      <stop offset="0" stop-color="#007497"/>
      <stop offset=".22" stop-color="#007497"/>
      <stop offset=".49" stop-color="#007294"/>
      <stop offset=".61" stop-color="#006c8d"/>
      <stop offset=".7" stop-color="#006280"/>
      <stop offset=".78" stop-color="#00546e"/>
      <stop offset=".85" stop-color="#004256"/>
      <stop offset=".91" stop-color="#002b39"/>
      <stop offset=".97" stop-color="#001117"/>
      <stop offset="1" stop-color="#000"/>
    </linearGradient>
    <linearGradient id="linear-gradient-2" x1="300.44" y1="64.88" x2="298.34" y2="246.4" gradientUnits="userSpaceOnUse">
      <stop offset="0" stop-color="#007497"/>
      <stop offset=".25" stop-color="#216f86"/>
      <stop offset=".57" stop-color="#466a75"/>
      <stop offset=".84" stop-color="#5d676a"/>
      <stop offset="1" stop-color="#666"/>
    </linearGradient>
  </defs>
  <path class="cls-3" d="m321.13,333.85h0s0,0,0,0c-4.51,22.82-17.48,20.43-40.52,19.95,0-13.96-.02-79.67.03-92.15-9.37,2.87-51.77,15.85-61.98,18.98v125.59c18.17-2.91,114.85,5.3,133.68-14.77,20.92-17.55,24.7-38.73,25.31-68.98.24-18.77.24-71.19.34-90.63l-56.55,17.32c.12,41.5.12,82.47-.31,84.69Z"/>
  <path class="cls-2" d="m224.09,101.81c-49.41-45.88-92.19,4.93-120.42,39.21l23.85,9.88c.02,35.7.03,107.5.03,143.15l55.12-16.88v-138.9c6.04-2.51,15.4-2.94,22.59-.6,5.34,1.74,9.24,6.39,10.3,11.91,5.58,28.92,2.93,102.78,3.21,116.37h0s0,0,0,0c3.51-2.28,5.32-164.42,5.32-164.15Z"/>
  <path class="cls-1" d="m371.22,122.55c-27.35-57.21-104.08-55.91-149.71-22.83,0-.26-2.84,166.24-2.75,166.24h0s61.9-19,61.9-19l.21-117.56c47.22-13.95,40.62,33.74,40.62,105.08l56.53-17.31c-.77-24.26,3.58-74.69-6.81-94.63Z"/>
</svg>