<?xml version="1.0" encoding="UTF-8" standalone="no"?>
<!DOCTYPE svg PUBLIC "-//W3C//DTD SVG 1.1//EN" "http://www.w3.org/Graphics/SVG/1.1/DTD/svg11.dtd">
<svg width="100%" height="100%" viewBox="0 0 315 379" version="1.1" xmlns="http://www.w3.org/2000/svg" xmlns:xlink="http://www.w3.org/1999/xlink" xml:space="preserve" xmlns:serif="http://www.serif.com/" style="fill-rule:evenodd;clip-rule:evenodd;stroke-linejoin:round;stroke-miterlimit:2;">
    <g transform="matrix(1.02739,0,0,1.02942,-14.1694,-4.98053)">
        <rect id="Artboard1" x="13.792" y="4.838" width="306.533" height="367.698" style="fill:none;"/>
        <g id="Artboard11" serif:id="Artboard1">
            <g transform="matrix(0.956668,0,0,0.95478,-1029.03,-666.294)">
                <path d="M1328.46,991.068L1328.47,991.068L1328.46,991.071C1323.95,1013.89 1310.99,1011.5 1287.94,1011.02C1287.95,997.059 1287.93,931.353 1287.98,918.87C1278.6,921.74 1236.21,934.722 1226,937.848L1226,1063.44C1244.18,1060.53 1340.85,1068.73 1359.68,1048.67C1380.61,1031.13 1384.38,1009.95 1384.99,979.688C1385.24,960.922 1385.24,908.493 1385.33,889.059L1328.78,906.376C1328.9,947.873 1328.9,988.847 1328.46,991.068Z" style="fill:rgb(255,0,193);fill-rule:nonzero;"/>
            </g>
            <g transform="matrix(0.956668,0,0,0.95478,-1029.03,-666.294)">
                <path d="M1231.42,759.033C1182.01,713.153 1139.23,763.965 1111,798.247L1134.86,808.123C1134.87,843.821 1134.89,915.621 1134.88,951.276L1190,934.398L1190,795.498C1196.04,792.992 1205.4,792.561 1212.59,794.902C1217.93,796.642 1221.82,801.294 1222.89,806.813C1228.46,835.736 1225.82,909.594 1226.1,923.186L1226.1,923.185L1226.1,923.186C1229.61,920.903 1231.42,758.77 1231.42,759.033Z" style="fill:url(#_Linear1);"/>
            </g>
            <g transform="matrix(0.956668,0,0,0.95478,-1029.03,-666.294)">
                <path d="M1378.56,779.77C1351.21,722.558 1274.48,723.858 1228.85,756.943C1228.85,756.68 1226,923.186 1226.1,923.186L1226.1,923.185L1288,904.189L1288.22,786.628C1335.44,772.677 1328.83,820.371 1328.83,891.704L1385.36,874.397C1384.59,850.14 1388.95,799.711 1378.56,779.77Z" style="fill:rgb(255,0,193);"/>
            </g>
        </g>
    </g>
    <defs>
        <linearGradient id="_Linear1" x1="0" y1="0" x2="1" y2="0" gradientUnits="userSpaceOnUse" gradientTransform="matrix(121.35,0,0,-121.35,1116.28,846.011)"><stop offset="0" style="stop-color:rgb(255,0,193);stop-opacity:1"/><stop offset="0.6" style="stop-color:rgb(229,0,173);stop-opacity:1"/><stop offset="0.8" style="stop-color:rgb(212,0,160);stop-opacity:1"/><stop offset="1" style="stop-color:rgb(143,0,108);stop-opacity:1"/></linearGradient>
    </defs>
</svg>
